<svg width="230" height="37" viewBox="0 0 230 37" fill="none" xmlns="http://www.w3.org/2000/svg">
<path d="M38.5302 34.4056V21.8646H40.9129V34.4056H47.8104V3.30405H40.9129V14.5909H38.5302V3.30405H31.6328V34.4056H38.5302ZM55.7538 34.4056L56.2144 29.849H59.397L59.8996 34.4056H66.5997L62.2446 3.30405H53.7437L49.7655 34.4056H55.7538ZM58.7796 23.6603H56.8693L57.8245 14.2284L58.7796 23.6603ZM76.7702 34.8832C82.2523 34.8832 84.1355 31.1237 84.1355 27.239V20.8061H77.3142V27.0301C77.3142 27.9909 77.0631 28.6592 76.2261 28.6592C75.3473 28.6592 75.0544 28.0744 75.0544 27.0301V10.4468C75.0544 9.31899 75.3054 8.90128 76.1843 8.90128C77.0631 8.90128 77.3142 9.44431 77.3142 10.4468V15.2505H84.1355V10.1544C84.1355 6.06081 82.2942 2.88617 76.7702 2.88617H75.5147C69.907 2.88617 67.8982 6.39498 67.8982 10.8645V26.6542C67.8982 31.4579 69.7396 34.8832 75.5565 34.8832H76.7702ZM93.0129 34.4056L96.3608 18.9384V34.4056H102.806V3.30405H96.3608L93.0129 18.8548V3.30405H86.5682V34.4056H93.0129ZM106.295 34.4056C111.142 34.4056 112.688 32.6917 113.023 27.7589C113.231 24.331 113.357 17.6425 113.357 9.74173H115.237V34.4056H122.132V3.30405H107.089C107.089 15.1343 106.963 22.1155 106.796 25.6687C106.754 27.1318 106.462 27.7589 105.334 27.7589H104.999V34.4056H106.295ZM131.308 34.4056L134.656 18.9384V34.4056H141.101V3.30405H134.656L131.308 18.8548V3.30405H124.863V34.4056H131.308ZM161.452 34.8235C166.175 34.8235 169.143 31.7758 169.143 26.3903V11.6533C169.143 6.35127 166.928 2.88617 161.41 2.88617H160.073C154.598 2.88617 152.299 6.30952 152.299 11.6533V14.7844H150.669V3.30366H143.772V34.3642H150.669V21.5476H152.299V26.3903C152.299 31.7758 155.057 34.8235 160.073 34.8235H161.452ZM160.726 28.436C159.765 28.436 159.472 27.851 159.472 26.8899V10.969C159.472 9.79896 159.765 9.21394 160.726 9.21394C161.561 9.21394 161.979 9.79896 161.979 10.969V26.8899C161.979 27.851 161.687 28.436 160.726 28.436ZM177.366 34.4056V27.66H171.396V34.4056H177.366ZM186.816 34.4056V21.8646H189.198V34.4056H196.096V3.30405H189.198V14.5909H186.816V3.30405H179.918V34.4056H186.816ZM212.079 34.4056V27.8425H205.713V21.6556H210.614V15.0507H205.713V9.74173H211.828V3.30405H198.887V34.4056H212.079ZM224.821 34.4056V9.74173H228.707V3.30405H214.081V9.74173H217.968V34.4056H224.821Z" fill="white"/>
<path d="M177.366 27.66V34.4056H171.396V27.66H177.366Z" fill="#E64249"/>
<path fill-rule="evenodd" clip-rule="evenodd" d="M14.2269 0.887695L20.2391 6.88393L27.454 3.28619V22.4742C27.4567 28.7508 23.0476 33.5478 14.2269 36.8651C5.40896 33.5478 1 28.7508 1 22.4742V3.28619L8.21467 6.88393L14.2269 0.887695ZM16.0305 17.8215H12.4232L10.0183 28.4349H12.2088V30.5398H16.2303V28.4349H18.4354L16.0305 17.8215ZM14.2569 9.66424C12.5137 9.66424 11.1005 11.0737 11.1005 12.8123C11.1005 14.5509 12.5137 15.9603 14.2569 15.9603C16.0002 15.9603 17.4133 14.5509 17.4133 12.8123C17.4133 11.0737 16.0002 9.66424 14.2569 9.66424Z" fill="#E64249"/>
</svg>
