<svg width="137" height="187" viewBox="0 0 137 187" fill="none" xmlns="http://www.w3.org/2000/svg">
<path fill-rule="evenodd" clip-rule="evenodd" d="M68.4994 0L99.6351 31.1666L137 12.4667V112.2C137.014 144.824 114.18 169.757 68.4994 187C22.8331 169.757 0 144.824 0 112.2V12.4667L37.3633 31.1666L68.4994 0ZM77.8402 88.0172H59.1586L46.7041 143.182H58.0484L58.0485 154.122H78.8744V143.182H90.2944L77.8402 88.0172ZM68.655 45.6178C59.6272 45.6178 52.3086 52.9435 52.3086 61.9803C52.3086 71.0171 59.6272 78.3428 68.655 78.3428C77.6829 78.3428 85.0017 71.0171 85.0017 61.9803C85.0017 52.9435 77.6829 45.6178 68.655 45.6178Z" fill="#FF3939"/>
</svg>
