<?xml version="1.0" encoding="UTF-8" standalone="no"?>
<!-- Created with Inkscape (http://www.inkscape.org/) -->

<svg
   xmlns:dc="http://purl.org/dc/elements/1.1/"
   xmlns:cc="http://creativecommons.org/ns#"
   xmlns:rdf="http://www.w3.org/1999/02/22-rdf-syntax-ns#"
   xmlns:svg="http://www.w3.org/2000/svg"
   xmlns="http://www.w3.org/2000/svg"
   version="1.1"
   width="500"
   height="70"
   viewBox="0 0 141.11111 19.755555"
   id="svg2"
   xml:space="preserve"
   style="fill-rule:evenodd"><metadata
   id="metadata16"><rdf:RDF><cc:Work
       rdf:about=""><dc:format>image/svg+xml</dc:format><dc:type
         rdf:resource="http://purl.org/dc/dcmitype/StillImage" /><dc:title></dc:title></cc:Work></rdf:RDF></metadata>
 <defs
   id="defs4"><style
     type="text/css"
     id="style6" /></defs>
 <g
   id="g3008"><path
     d="m 140.53333,2.783969 c 2.4e-4,-0.9630202 -0.78129,-1.7443183 -1.74419,-1.7443183 -0.95658,1.193e-4 -1.74408,0.787622 -1.74396,1.744199 0,0.9566964 0.78774,1.7437218 1.74408,1.7439604 0.95717,3.579e-4 1.74372,-0.7870254 1.74407,-1.7438411 z m -3.78371,-1.193e-4 c 0,-1.1193276 0.92007,-2.0397511 2.03952,-2.0397511 1.12481,0 2.03951,0.9143383 2.03975,2.0392739 2.4e-4,1.1190889 -0.92055,2.0396318 -2.0394,2.0399897 -1.11944,3.58e-4 -2.03987,-0.9201849 -2.03987,-2.0395125 z"
     id="_157374752"
     style="fill:#7f7f7f;fill-rule:nonzero" /><path
     d="m 138.72924,1.2853277 c 0.0536,0.4998255 0.45591,0.2158473 0.62952,0.076245 0.0634,-0.050233 0.14116,-0.1427051 0.1834,-0.1687165 0.0276,-0.016227 0.0681,-0.00477 0.0844,0.029233 0.0162,0.050233 0.0228,0.1135913 -0.008,0.2060632 -0.0374,0.1086992 -0.10058,0.2141769 -0.13626,0.2709725 -0.0925,0.1492676 -0.18339,0.2806373 -0.29209,0.4185696 -0.17683,0.2207394 -0.40079,0.395899 -0.58574,0.6117464 -0.28398,0.3309897 -0.44458,0.8421505 -0.357,1.2737258 0.0228,0.1102504 0.0747,0.2498531 0.18017,0.3081999 0.62631,0.3473364 1.08544,-1.1422368 0.87294,-1.5819257 -0.0292,-0.056796 -0.0876,-0.1590517 -0.1655,-0.1443755 -0.39268,0.073023 -0.5744,1.3482999 -0.32944,1.4407718 -0.0119,0.150938 -0.2514,0.2434099 -0.3212,-0.035676 -0.0228,-0.097364 -0.0276,-0.19962 -0.0243,-0.3002056 0.0119,-0.4251321 0.35211,-1.0676626 0.74144,-1.2639417 0.17695,-0.090921 0.42681,-0.08925 0.52572,0.1135913 0.34889,0.7219967 -0.59385,2.0557398 -1.40999,1.9340349 -0.39423,-0.060017 -0.53705,-0.4380185 -0.50627,-0.7966902 0.0243,-0.2951942 0.14772,-0.5759508 0.31811,-0.8161391 0.34399,-0.4834789 0.88582,-0.6246328 1.14868,-1.0043045 0,0 0.01,-0.014557 0.0119,-0.022671 0.004,-0.011932 -0.01,-0.026012 -0.0277,-0.011932 -0.0291,0.026012 -0.18005,0.1039265 -0.28553,0.1168129 -0.21251,0.024341 -0.32777,-0.2660804 -0.36345,-0.4266832 -0.008,-0.035676 -0.01,-0.063239 -0.0438,-0.017898 -0.1038,0.1347107 -0.18339,0.8876109 -0.28887,0.9297304 l -0.41212,0.1639437 c 0,0 -0.0178,0.00835 -0.0243,-0.016227 -0.047,-0.175279 0.37812,-0.7836845 0.4966,-0.9881965 0.0161,-0.025892 0.11347,-0.215728 0.13137,-0.2304042 0.0308,-0.025892 0.21907,-0.074574 0.25797,-0.068131 z"
     id="_157374224"
     style="fill:#7f7f7f" /></g><path
   d="m 15.308488,15.591625 -5.6758653,0 -3.4762275,-5.7638029 -1.1294697,1.1751689 0,4.588634 -4.74470328,0 0,-14.5011446 4.74470328,0 0,4.6802713 4.0682863,-4.6802713 5.5647802,0 -5.2175631,5.408592 5.8660591,9.0925526 z m 6.352879,-5.379716 c 0,-0.6630537 -0.155591,-1.2643001 -0.467132,-1.7968189 -0.311422,-0.5325188 -0.792156,-0.8005083 -1.448886,-0.8005083 -0.585734,0 -1.029122,0.2679895 -1.327061,0.8039685 -0.297938,0.53932 -0.446848,1.1372254 -0.446848,1.7933587 0,0.704337 0.159052,1.370851 0.477394,1.992739 0.314762,0.62523 0.802179,0.937844 1.455567,0.937844 0.629764,0 1.079953,-0.302353 1.350806,-0.910401 0.270853,-0.608047 0.40616,-1.281481 0.40616,-2.020182 z m 3.290807,3.267181 c -1.121118,1.662466 -3.042743,2.440423 -5.030233,2.440423 -2.048223,0 -4.022349,-0.771395 -5.167091,-2.499963 -1.050004,-1.585744 -1.184356,-4.1713776 -0.299848,-5.863315 0.680474,-1.3021237 1.927711,-2.2433087 3.357744,-2.6257247 1.575125,-0.4371833 3.279949,-0.342683 4.792193,0.2811146 1.414163,0.5810815 2.466195,1.7766536 2.924259,3.1978572 0.500184,1.5517382 0.321683,3.7366999 -0.577024,5.0696079 z M 61.721387,9.1481835 C 61.572955,8.4575675 61.328829,7.9788614 60.992112,7.712065 60.652293,7.4413312 60.223342,7.307933 59.698699,7.307933 c -0.508178,0 -0.910759,0.12958 -1.207743,0.3923195 -0.296984,0.2590406 -0.521422,0.7416843 -0.676536,1.447931 l 3.906967,0 z m 4.05886,2.0479845 -7.924782,0 c 0,0.326455 0.05608,0.612939 0.168239,0.862554 0.341013,0.759224 0.958009,1.271697 1.841325,1.271697 0.648735,0 1.396862,-0.261188 1.536346,-0.965765 l 4.058741,0 c -0.154041,0.999771 -0.792156,1.881893 -1.613546,2.461543 -0.828667,0.58299 -1.846335,0.907775 -2.851117,1.022441 -1.288641,0.158335 -2.779526,0.115261 -3.972951,-0.383013 -1.388391,-0.577025 -2.42515,-1.643852 -2.989646,-3.02055 -0.518559,-1.341857 -0.525598,-2.8302366 -0.02303,-4.182832 0.521303,-1.4031865 1.594574,-2.488389 2.986306,-3.0638625 1.692534,-0.6968205 4.062201,-0.6495703 5.698775,0.1664494 1.452107,0.7214002 2.44257,1.9512168 2.854339,3.5034322 0.203199,0.7808208 0.280398,1.5289479 0.231,2.3279059 z m 11.368078,2.303087 c -0.779747,1.486351 -2.219803,2.414769 -3.955649,2.414769 -1.246641,0 -2.066718,-0.405206 -2.909226,-1.269907 l 0,4.546992 -4.227935,0 0,-14.1300642 3.743621,0 0,1.5754826 c 0.812082,-1.6180793 2.821884,-2.2059619 4.443424,-1.7977731 1.766631,0.4406435 2.956475,1.9260405 3.379937,3.5955461 0.396018,1.5517381 0.258683,3.6787116 -0.474172,5.0649546 z m -3.443773,-3.435659 c 0,-0.4466098 -0.148074,-0.9341456 -0.447922,-1.4592666 -0.299728,-0.5250018 -0.734167,-0.7875026 -1.299976,-0.7875026 -0.562348,0 -0.996787,0.2454383 -1.299856,0.7397751 -0.303189,0.490996 -0.454723,0.992134 -0.454723,1.5069941 0,0.630837 0.117886,1.220629 0.35366,1.766153 0.238995,0.545525 0.70386,0.818287 1.400919,0.818287 0.680355,0 1.138419,-0.283024 1.384215,-0.848952 0.222529,-0.54624 0.363683,-1.143549 0.363683,-1.735488 z m 13.23088,5.406802 c -1.642898,0.575354 -3.875826,0.66365 -5.511445,-0.01694 -1.029958,-0.428474 -1.942864,-1.151544 -2.519412,-2.113013 -0.563541,-0.923407 -0.856349,-1.987251 -0.856349,-3.070187 0,-0.7212804 0.151773,-1.4300328 0.406757,-2.1029896 0.590865,-1.5131982 1.61271,-2.3814795 3.087965,-2.9829645 1.688358,-0.6884682 4.196196,-0.6634113 5.799241,0.2089269 1.527755,0.8314118 2.327547,1.9763929 2.537548,3.6637963 l -4.326253,0 C 85.477359,8.5379882 85.330955,8.2171406 85.117016,7.9434238 84.511117,7.1676144 83.13955,7.5466895 82.70177,8.3122375 c -0.558411,0.9768612 -0.650764,2.4197805 -0.297581,3.4905455 0.23291,0.70577 0.999532,1.304152 1.744199,1.304152 1.055731,0 1.2748,-0.7109 1.550545,-1.594573 l 4.180804,0 c -0.04379,1.766869 -1.100237,3.312045 -2.944305,3.958036 z m 10.656342,-4.019605 c 0,-0.19604 -0.01766,-0.357001 -0.0531,-0.479541 -0.290063,0.160961 -0.742997,0.301041 -1.358561,0.420001 -0.468922,0.08567 -0.967554,0.190433 -1.38684,0.420121 -0.594326,0.293882 -0.562229,1.136629 -0.04248,1.477045 0.601365,0.361774 1.609965,0.331944 2.115637,-0.174921 0.481212,-0.458661 0.725338,-1.011583 0.725338,-1.662705 z m 4.703896,4.140832 -4.327685,0 -0.164421,-1.11539 c -0.315716,0.407712 -1.020531,0.743594 -1.732386,1.017669 -0.346978,0.133636 -0.703622,0.239353 -1.068617,0.306648 -0.364996,0.06407 -0.75302,0.09784 -1.15739,0.09784 -0.729991,0 -1.397579,-0.128028 -2.002524,-0.384205 -0.605065,-0.256177 -1.062055,-0.657207 -1.377772,-1.196408 -0.282785,-0.593132 -0.424177,-1.193066 -0.424177,-1.806364 0,-0.775213 0.361058,-1.414402 0.857304,-1.98737 0.282904,-0.326814 0.559962,-0.510445 1.059668,-0.7024285 0.236728,-0.090921 0.470831,-0.1699096 0.7004,-0.2358928 0.227421,-0.065387 0.442911,-0.1276709 0.647781,-0.1584551 l 1.772358,-0.2661997 c 0.752184,-0.1129947 1.479789,-0.210478 1.801352,-0.3167909 0.197831,-0.065506 0.431218,-0.2793248 0.54636,-0.4141547 0.115023,-0.1347107 0.09808,-0.2763419 0.09808,-0.4211946 0,-0.1989041 -0.09534,-0.364041 -0.289348,-0.4987517 -0.193892,-0.13483 -0.470234,-0.202245 -0.828548,-0.202245 -0.43074,0 -0.966242,0.064074 -1.225998,0.1921029 -0.259757,0.1280289 -0.427519,0.3842058 -0.506388,0.7649514 l -4.008747,0 c 0.13483,-0.6908545 0.11037,-1.0941513 0.306291,-1.5160618 0.195325,-0.420598 0.503167,-0.7817754 0.924003,-1.0817423 0.420837,-0.2998476 0.998816,-0.5329961 1.739427,-0.6875136 0.357597,-0.074574 0.782729,-0.1265971 1.26597,-0.165137 0.4867,-0.038898 1.025901,-0.060614 1.624284,-0.060614 1.456641,0 2.54769,0.1732506 3.275056,0.5189165 0.725927,0.3451887 1.199507,0.6233203 1.420487,1.1419981 0.21966,0.5159336 0.36821,1.1862654 0.4373,2.008609 l 0,5.5674048 c 0,0.572968 0.2137,0.997623 0.63788,1.273965 l 0,0.326813 z m 11.76004,0 -4.17472,0 0,-3.935723 -3.0919,0 0,3.935723 -4.13451,0 -0.004,-10.3663978 0.004,-0.1584551 4.13451,0 0,3.52658 3.04524,0 0,-3.52658 4.22138,0 -0.004,10.3362109 0.004,0.188642 z m 11.60015,-7.4229278 -3.59483,0 0,7.4229278 -4.18761,0 0,-7.4229278 -3.62513,0 0,-3.1019251 11.40757,0 0,3.1019251 z m 13.56008,4.0549228 c 0,0.92448 -0.44053,1.736682 -1.14797,2.315974 -0.9308,0.769843 -2.21813,1.052031 -3.39986,1.052031 l -6.46217,0 0,-7.4229278 -2.41382,0 0,-3.1019251 6.44297,0 0,3.6939839 2.20405,0 c 1.22695,0 2.5873,0.2399497 3.55987,1.0458274 0.73118,0.6057806 1.21693,1.4530616 1.21693,2.4170366 z m -4.16207,0.01074 c 0,-0.664963 -0.3681,-0.94393 -1.00049,-1.019697 -0.1285,0 -0.38265,-0.01074 -0.75898,-0.02685 -0.37633,-0.01682 -0.88058,-0.02351 -1.05931,-0.02351 l 0,2.032711 1.04678,0.02017 c 0.28541,0.006 0.5207,-0.006 0.70255,-0.02017 0.64288,-0.04773 1.06945,-0.22241 1.06945,-0.962662 z m -101.147911,3.357147 -2.029132,0 -2.217177,-7.0308472 0.342444,2.7557822 0,4.275065 -3.702456,0 0,-10.585467 4.748403,0 1.843352,5.847207 1.843353,-5.847207 4.748522,0 0,10.585467 -3.702575,0 0,-4.275065 0.342444,-2.7557822 -2.217178,7.0308472 z m 13.865296,0 -2.029131,0 -2.217178,-7.0308472 0.342444,2.7557822 0,4.275065 -3.702575,0 0,-10.585467 4.748522,0 1.843353,5.847207 1.843352,-5.847207 4.748403,0 0,10.585467 -3.702456,0 0,-4.275065 0.342444,-2.7557822 -2.217178,7.0308472 z"
   id="_158452176"
   style="fill:#000000;fill-rule:nonzero" />
</svg>